<?xml version="1.0" standalone="no"?>
<!DOCTYPE svg PUBLIC "-//W3C//DTD SVG 20010904//EN"
 "http://www.w3.org/TR/2001/REC-SVG-20010904/DTD/svg10.dtd">
<svg version="1.0" xmlns="http://www.w3.org/2000/svg"
 width="375.000000pt" height="375.000000pt" viewBox="0 0 375.000000 375.000000"
 preserveAspectRatio="xMidYMid meet">
<metadata>
Created by potrace 1.14, written by Peter Selinger 2001-2017
</metadata>
<g transform="translate(0.000000,375.000000) scale(0.100000,-0.100000)"
fill="#000000" stroke="none">
<path d="M509 3498 c-6 -14 -2 -1728 4 -1728 9 0 29 20 122 123 33 37 88 96
122 132 35 36 61 65 59 65 -3 0 22 27 55 60 32 33 57 60 54 60 -3 0 21 27 53
60 31 32 84 87 117 121 l60 62 0 524 0 523 -322 0 c-178 0 -324 -1 -324 -2z"/>
<path d="M2432 3481 c-12 -10 -22 -22 -22 -26 0 -5 -25 -34 -55 -64 -131 -134
-165 -171 -165 -177 0 -3 -24 -30 -52 -60 -29 -30 -82 -86 -118 -124 -36 -39
-89 -96 -117 -126 -29 -31 -53 -58 -53 -61 0 -2 -27 -31 -61 -64 -33 -32 -58
-59 -54 -59 4 0 -22 -29 -59 -65 -36 -36 -66 -68 -66 -71 0 -3 -25 -30 -55
-60 -31 -30 -53 -54 -50 -54 4 0 -23 -29 -59 -65 -36 -36 -67 -69 -68 -73 -3
-7 -53 -61 -160 -173 -31 -32 -55 -59 -52 -59 3 0 -22 -27 -55 -59 -34 -33
-61 -62 -61 -66 0 -4 -27 -33 -59 -66 -33 -32 -57 -59 -55 -59 2 0 -23 -27
-56 -60 -33 -33 -57 -60 -54 -60 4 0 -20 -27 -52 -60 -33 -33 -86 -89 -119
-125 -33 -36 -80 -87 -105 -114 l-45 -47 0 -537 0 -537 325 0 325 0 0 477 0
478 133 132 c73 73 131 133 128 133 -2 0 77 83 177 184 469 477 547 556 547
560 0 2 81 86 181 187 99 101 259 265 356 364 327 337 544 560 599 618 l55 57
-439 0 c-414 0 -440 -1 -460 -19z"/>
<path d="M2246 1956 c-20 -18 -33 -36 -30 -39 3 -3 -4 -8 -15 -12 -12 -3 -21
-11 -21 -16 0 -5 -71 -81 -159 -169 -87 -88 -156 -162 -153 -165 3 -3 -1 -5
-10 -5 -8 0 -15 -7 -15 -15 0 -8 4 -15 9 -15 4 0 8 -9 8 -19 0 -10 7 -22 16
-25 8 -3 12 -10 9 -16 -3 -5 -1 -10 5 -10 6 0 9 -4 5 -9 -3 -6 1 -13 9 -18 8
-4 16 -15 18 -23 2 -8 9 -21 16 -28 7 -8 10 -17 7 -22 -3 -5 -2 -10 3 -12 11
-4 57 -81 54 -90 -1 -5 3 -8 9 -8 5 0 8 -4 5 -9 -4 -5 -3 -11 2 -13 8 -3 67
-101 64 -106 -1 -1 7 -12 17 -24 11 -11 18 -24 16 -28 -2 -4 4 -16 13 -26 16
-17 26 -35 34 -62 1 -4 10 -16 20 -26 9 -10 15 -23 12 -28 -3 -4 0 -8 5 -8 6
0 11 -7 11 -15 0 -8 5 -15 11 -15 5 0 7 -4 4 -10 -3 -5 -2 -10 3 -10 8 0 42
-64 41 -77 0 -3 6 -10 15 -15 9 -5 16 -18 16 -28 0 -11 4 -20 8 -20 10 0 37
-51 34 -63 -1 -4 5 -10 13 -13 8 -3 12 -10 9 -15 -3 -5 0 -9 6 -9 6 0 8 -4 5
-10 -3 -5 -1 -10 5 -10 6 0 9 -4 6 -9 -3 -5 1 -12 10 -15 8 -3 13 -10 10 -14
-3 -5 6 -21 19 -36 14 -16 22 -33 19 -37 -3 -5 0 -9 6 -9 6 0 9 -4 6 -9 -4 -5
-3 -11 2 -13 8 -3 66 -98 66 -108 0 -3 7 -13 16 -23 16 -16 47 -17 435 -15
387 3 417 4 402 19 -9 9 -13 19 -10 23 3 3 -2 8 -11 12 -9 3 -13 10 -10 15 3
5 -2 12 -10 15 -9 3 -14 10 -11 14 4 7 -5 20 -45 68 -6 6 -8 12 -5 12 7 0 -45
71 -58 81 -5 3 -7 9 -5 12 1 4 -5 15 -14 27 -10 11 -14 20 -10 20 4 0 -2 7
-12 15 -11 8 -16 15 -12 15 4 0 1 7 -6 15 -30 34 -36 43 -31 49 3 3 -2 8 -11
12 -9 3 -13 10 -10 15 3 5 0 9 -5 9 -6 0 -11 7 -11 15 0 9 -7 18 -15 21 -8 4
-15 12 -15 19 0 8 -7 21 -16 29 -8 9 -12 16 -7 16 4 0 -1 7 -11 15 -11 8 -16
15 -10 15 5 0 5 4 -1 8 -13 9 -110 155 -110 165 0 4 -6 11 -13 16 -8 5 -13 12
-12 16 1 4 -7 17 -18 30 -11 13 -18 26 -15 29 3 3 -2 8 -11 12 -9 3 -13 10
-10 15 3 5 -2 12 -10 15 -9 3 -13 10 -10 15 3 5 0 9 -5 9 -6 0 -11 6 -11 13 0
7 -9 23 -19 34 -11 12 -17 24 -14 27 4 3 2 6 -3 6 -5 0 -18 16 -28 35 -11 19
-23 35 -28 35 -5 0 -6 5 -3 10 3 6 -1 13 -9 16 -9 3 -14 10 -11 14 3 4 -2 11
-11 14 -8 3 -13 10 -9 16 3 5 -3 18 -14 29 -11 11 -17 21 -15 24 2 2 -7 16
-20 30 -14 15 -23 27 -20 27 3 0 -1 7 -8 15 -31 34 -38 45 -31 45 4 0 -1 7
-11 15 -11 8 -17 15 -13 15 10 0 -24 53 -40 63 -8 5 -11 12 -8 18 4 5 -1 12
-9 15 -9 3 -16 12 -16 18 0 7 -9 22 -20 34 -11 12 -20 25 -20 30 0 4 -8 17
-18 28 -10 10 -26 36 -35 57 -10 20 -22 37 -28 37 -6 0 -8 4 -5 9 3 5 -1 12
-10 15 -8 3 -12 10 -9 16 15 24 -26 7 -59 -24z"/>
</g>
</svg>
