<svg xmlns="http://www.w3.org/2000/svg" xmlns:xlink="http://www.w3.org/1999/xlink" width="1080" zoomAndPan="magnify" viewBox="0 0 810 809.999993" height="1080" preserveAspectRatio="xMidYMid meet" version="1.0"><defs><clipPath id="285f8d151a"><path d="M 4 20.066406 L 799 20.066406 L 799 789 L 4 789 Z M 4 20.066406 " clip-rule="nonzero"/></clipPath></defs><path fill="#cceaee" d="M 325.386719 765.34375 L 392.75 737.957031 L 462.210938 731.652344 L 554.839844 719.011719 L 542.195312 754.804688 L 458.011719 773.753906 L 382.21875 780.074219 L 325.386719 765.34375 " fill-opacity="1" fill-rule="evenodd"/><g clip-path="url(#285f8d151a)"><path fill="#FFFFFF" d="M 417.242188 26.382812 L 356.195312 20.066406 L 293.042969 30.59375 L 234.105469 47.4375 L 196.214844 66.386719 L 158.320312 91.648438 L 120.433594 123.222656 L 80.433594 173.746094 L 57.285156 207.4375 L 34.117188 253.75 L 17.28125 295.859375 L 6.765625 352.699219 L 4.65625 405.332031 L 10.96875 470.59375 L 27.808594 527.4375 L 48.863281 584.28125 L 76.230469 628.484375 L 112.015625 670.59375 L 152.003906 706.386719 L 202.527344 737.957031 L 255.148438 759.015625 L 314.097656 775.859375 L 377.242188 786.375 L 436.191406 788.484375 L 497.222656 782.164062 L 568.800781 763.214844 L 615.121094 746.394531 L 671.960938 708.492188 L 722.460938 666.382812 L 749.832031 630.59375 L 783.519531 573.765625 L 796.160156 527.4375 L 798.246094 497.964844 L 787.726562 479.019531 L 783.519531 510.597656 L 775.085938 544.277344 L 751.941406 580.066406 L 749.832031 554.8125 L 735.105469 559.03125 L 737.1875 582.175781 L 739.316406 607.445312 L 705.636719 639.003906 L 684.566406 666.382812 L 646.6875 691.632812 L 608.796875 714.796875 L 579.3125 733.75 L 520.386719 748.480469 L 457.242188 756.910156 L 398.296875 759.015625 L 339.359375 754.804688 L 293.042969 737.957031 L 227.785156 716.921875 L 185.6875 689.546875 L 149.898438 657.953125 L 99.382812 615.859375 L 67.808594 565.335938 L 48.863281 525.328125 L 34.117188 479.019531 L 27.808594 439.015625 L 25.699219 405.332031 L 32.019531 359.011719 L 40.441406 314.800781 L 59.386719 262.167969 L 90.960938 201.117188 L 122.535156 161.121094 L 154.113281 123.222656 L 198.320312 87.433594 L 250.945312 64.28125 L 297.25 47.4375 L 362.507812 36.910156 L 417.242188 26.382812 " fill-opacity="1" fill-rule="evenodd"/></g><path fill="#FFFFFF" d="M 459.8125 22.417969 L 531.371094 41.359375 L 581.886719 60.308594 L 632.421875 83.472656 L 676.625 115.046875 L 737.679688 176.101562 L 769.234375 230.839844 L 788.179688 272.941406 L 800.820312 319.261719 L 807.125 367.675781 L 802.910156 422.410156 L 790.300781 481.363281 L 783.984375 445.570312 L 773.445312 407.671875 L 775.570312 367.675781 L 771.355469 306.625 L 758.710938 266.628906 L 739.765625 226.621094 L 718.730469 190.832031 L 691.351562 163.460938 L 636.621094 112.9375 L 590.316406 83.472656 L 539.777344 64.519531 L 482.960938 41.359375 L 459.8125 22.417969 " fill-opacity="1" fill-rule="evenodd"/><path fill="#FFFFFF" d="M 417.996094 415.878906 L 455.886719 401.132812 L 487.472656 388.5 L 535.886719 386.394531 L 529.585938 401.132812 L 495.886719 401.132812 L 464.3125 411.664062 L 422.207031 432.703125 L 417.996094 415.878906 " fill-opacity="1" fill-rule="evenodd"/><path fill="#FFFFFF" d="M 582.214844 392.703125 L 592.730469 405.332031 L 620.089844 405.332031 L 630.625 420.066406 L 628.5 460.070312 L 620.089844 508.488281 L 615.886719 550.601562 L 609.558594 575.851562 L 584.304688 588.496094 L 533.785156 588.496094 L 535.890625 575.851562 L 559.050781 580.066406 L 584.304688 569.546875 L 599.035156 552.6875 L 603.253906 510.597656 L 611.679688 453.765625 L 609.558594 424.28125 L 594.820312 420.066406 L 580.089844 413.742188 L 582.214844 392.703125 " fill-opacity="1" fill-rule="evenodd"/><path fill="#FFFFFF" d="M 409.585938 683.222656 L 411.695312 714.796875 L 422.210938 721.121094 L 445.367188 704.28125 L 474.835938 685.332031 L 487.476562 666.382812 L 485.371094 647.433594 L 495.890625 628.484375 L 512.730469 607.445312 L 502.210938 592.710938 L 487.476562 611.660156 L 474.835938 626.394531 L 466.425781 645.34375 L 464.316406 666.382812 L 458.011719 679.027344 L 441.160156 691.632812 L 428.53125 702.171875 L 420.121094 676.902344 L 409.585938 683.222656 " fill-opacity="1" fill-rule="evenodd"/><path fill="#FFFFFF" d="M 274.871094 407.445312 L 338.015625 430.609375 L 361.175781 439.023438 L 346.4375 472.703125 L 329.59375 519.015625 L 325.386719 537.960938 L 340.125 550.609375 L 373.800781 569.554688 L 394.855469 580.074219 L 394.855469 636.921875 L 405.378906 662.175781 L 409.585938 641.132812 L 407.476562 609.539062 L 413.800781 590.59375 L 409.585938 569.554688 L 386.433594 559.039062 L 367.488281 544.28125 L 344.335938 531.65625 L 356.960938 479.023438 L 378.015625 453.773438 L 371.703125 432.699219 L 340.125 413.75 L 306.4375 401.132812 L 289.601562 392.710938 L 274.871094 407.445312 " fill-opacity="1" fill-rule="evenodd"/><path fill="#FFFFFF" d="M 260.914062 379.539062 L 256.703125 362.699219 L 246.171875 341.648438 L 233.550781 331.121094 L 210.398438 337.4375 L 201.976562 360.589844 L 195.65625 352.171875 L 183.03125 354.277344 L 183.03125 362.699219 L 201.976562 387.960938 L 216.710938 404.8125 L 231.445312 400.597656 L 227.238281 385.863281 L 220.917969 366.910156 L 218.816406 352.171875 L 229.335938 347.964844 L 237.757812 364.808594 L 250.386719 383.753906 L 260.914062 390.070312 L 260.914062 379.539062 " fill-opacity="1" fill-rule="evenodd"/><path fill="#FFFFFF" d="M 260.128906 148.484375 L 234.871094 177.964844 L 209.609375 196.910156 L 186.457031 232.699219 L 194.878906 243.230469 L 194.878906 262.167969 L 188.554688 281.117188 L 184.351562 306.382812 L 186.457031 346.386719 L 171.714844 329.546875 L 163.300781 297.960938 L 171.714844 266.386719 L 173.824219 249.542969 L 167.511719 236.90625 L 173.824219 217.960938 L 192.773438 194.804688 L 224.34375 167.4375 L 258.03125 137.96875 L 260.128906 148.484375 " fill-opacity="1" fill-rule="evenodd"/><path fill="#FFFFFF" d="M 239.085938 123.222656 L 266.449219 108.488281 L 293.808594 97.960938 L 312.757812 100.070312 L 302.230469 108.488281 L 276.96875 119.015625 L 255.925781 123.222656 L 239.085938 140.0625 L 239.085938 123.222656 " fill-opacity="1" fill-rule="evenodd"/><path fill="#FFFFFF" d="M 338.015625 123.222656 L 340.125 135.855469 L 333.808594 150.59375 L 331.703125 167.4375 L 335.917969 182.179688 L 346.4375 192.695312 L 365.382812 194.804688 L 380.125 192.695312 L 386.433594 213.753906 L 405.378906 222.171875 L 420.121094 213.753906 L 426.421875 194.804688 L 428.53125 163.230469 L 449.585938 137.96875 L 447.476562 114.804688 L 432.75 123.222656 L 424.335938 140.0625 L 405.378906 161.121094 L 409.585938 182.179688 L 407.476562 203.226562 L 399.058594 196.910156 L 394.855469 177.964844 L 378.015625 167.4375 L 365.382812 177.964844 L 352.753906 171.648438 L 350.644531 152.703125 L 363.28125 123.222656 L 352.753906 116.910156 L 338.015625 123.222656 " fill-opacity="1" fill-rule="evenodd"/><path fill="#FFFFFF" d="M 515.375 96.640625 L 542.75 113.480469 L 565.90625 119.796875 L 563.78125 134.539062 L 530.109375 159.800781 L 485.910156 201.90625 L 551.175781 164.007812 L 563.78125 172.425781 L 570.125 208.21875 L 555.375 218.746094 L 538.535156 222.949219 L 513.285156 252.429688 L 494.335938 279.800781 L 481.695312 298.746094 L 462.75 311.371094 L 448.019531 313.480469 L 450.125 332.429688 L 443.800781 355.585938 L 429.070312 359.800781 L 420.65625 351.378906 L 414.332031 336.644531 L 412.238281 321.898438 L 399.609375 313.480469 L 376.453125 321.898438 L 353.296875 336.644531 L 349.089844 321.898438 L 380.660156 302.953125 L 408.03125 294.535156 L 424.855469 298.746094 L 424.855469 317.695312 L 431.195312 340.851562 L 435.390625 321.898438 L 441.714844 302.953125 L 466.964844 294.535156 L 492.230469 271.378906 L 506.964844 246.113281 L 536.445312 214.53125 L 542.75 197.6875 L 540.640625 182.957031 L 519.589844 197.6875 L 490.121094 216.636719 L 471.175781 231.378906 L 458.539062 216.636719 L 485.910156 182.957031 L 509.070312 157.691406 L 540.640625 134.539062 L 519.589844 117.6875 L 500.640625 96.640625 L 515.375 96.640625 " fill-opacity="1" fill-rule="evenodd"/><path fill="#FFFFFF" d="M 754.835938 352.699219 L 681.136719 386.382812 L 685.355469 420.066406 L 679.050781 455.855469 L 674.839844 479.019531 L 670.617188 497.964844 L 691.675781 512.699219 L 723.246094 535.863281 L 735.890625 533.742188 L 727.457031 521.132812 L 710.621094 502.183594 L 691.675781 491.648438 L 697.996094 449.550781 L 706.410156 411.65625 L 710.621094 394.804688 L 735.890625 377.960938 L 754.835938 373.753906 L 754.835938 352.699219 " fill-opacity="1" fill-rule="evenodd"/><path fill="#FFFFFF" d="M 313.84375 65.601562 L 362.25 59.285156 L 387.511719 55.070312 L 408.566406 65.601562 L 393.835938 107.699219 L 379.09375 95.074219 L 349.628906 90.863281 L 324.367188 84.546875 L 341.207031 78.234375 L 368.5625 80.34375 L 383.304688 84.546875 L 393.835938 71.914062 L 370.671875 69.816406 L 349.628906 69.816406 L 311.734375 78.234375 L 313.84375 65.601562 " fill-opacity="1" fill-rule="evenodd"/><path fill="#ffffff" d="M 325.386719 765.34375 L 392.75 737.957031 L 462.210938 731.652344 L 554.839844 719.011719 L 542.195312 754.804688 L 458.011719 773.753906 L 382.21875 780.074219 L 325.386719 765.34375 " fill-opacity="1" fill-rule="evenodd"/><path fill="#FFFFFF" d="M 582.214844 392.703125 L 592.730469 405.332031 L 620.089844 405.332031 L 630.625 420.066406 L 628.5 460.070312 L 620.089844 508.488281 L 615.886719 550.601562 L 609.558594 575.851562 L 584.304688 588.496094 L 533.785156 588.496094 L 535.890625 575.851562 L 559.050781 580.066406 L 584.304688 569.546875 L 599.035156 552.6875 L 603.253906 510.597656 L 611.679688 453.765625 L 609.558594 424.28125 L 594.820312 420.066406 L 580.089844 413.742188 L 582.214844 392.703125 " fill-opacity="1" fill-rule="evenodd"/><path fill="#FFFFFF" d="M 239.085938 123.222656 L 266.449219 108.488281 L 293.808594 97.960938 L 312.757812 100.070312 L 302.230469 108.488281 L 276.96875 119.015625 L 255.925781 123.222656 L 239.085938 140.0625 L 239.085938 123.222656 " fill-opacity="1" fill-rule="evenodd"/><path fill="#FFFFFF" d="M 350.707031 323.46875 L 338.082031 344.523438 L 338.082031 367.675781 L 354.921875 382.421875 L 375.964844 390.839844 L 390.707031 378.207031 L 397.019531 365.570312 L 413.855469 376.097656 L 399.128906 384.519531 L 397.019531 399.257812 L 405.441406 409.785156 L 430.699219 424.53125 L 434.898438 411.886719 L 424.386719 403.457031 L 422.277344 395.046875 L 430.699219 384.519531 L 432.804688 373.992188 L 424.386719 357.148438 L 409.644531 346.628906 L 392.808594 348.730469 L 380.179688 365.570312 L 369.65625 371.894531 L 352.8125 363.46875 L 354.921875 348.730469 L 363.34375 333.996094 L 350.707031 323.46875 " fill-opacity="1" fill-rule="evenodd"/><path fill="#FFFFFF" d="M 269.28125 127.304688 L 317.6875 120.992188 L 342.949219 116.777344 L 364.003906 127.304688 L 349.273438 169.40625 L 334.53125 156.78125 L 305.066406 152.566406 L 279.804688 146.253906 L 296.644531 139.9375 L 324.003906 142.050781 L 338.746094 146.253906 L 349.273438 133.621094 L 326.109375 131.523438 L 305.066406 131.523438 L 267.175781 139.9375 L 269.28125 127.304688 " fill-opacity="1" fill-rule="evenodd"/><path fill="#FFFFFF" d="M 14.625 459.417969 L 27.25 440.46875 L 46.199219 434.148438 L 60.9375 429.941406 L 63.039062 419.410156 L 67.25 387.835938 L 75.671875 360.464844 L 73.566406 347.832031 L 35.671875 328.882812 L 27.25 349.9375 L 50.414062 356.253906 L 50.414062 375.199219 L 44.101562 396.257812 L 39.886719 417.304688 L 29.359375 427.832031 L 10.414062 432.046875 L 14.625 459.417969 " fill-opacity="1" fill-rule="evenodd"/></svg>